<svg xmlns="http://www.w3.org/2000/svg" viewBox="0 0 500 500"><g id="freepik--Floor--inject-76"><path id="freepik--floor--inject-76" d="M77.66,239c-95.18,55-95.17,144,0,199s249.49,55,344.67,0,95.17-144,0-199S172.84,184.08,77.66,239Z" style="fill:#fafafa"></path></g><g id="freepik--Clouds--inject-76"><path id="freepik--Cloud--inject-76" d="M125.72,126.07a11.91,11.91,0,0,0-4-.74c-1.29-.1-1.7-.35-2-.63a9.48,9.48,0,0,0-11.38-3.37c-.76-3.08-4.48-5.75-8.59-4.85.14-4-5-8.3-9.56-9.28-4.4-.94-8.24-.54-10.75,2.35-2.69-5.25-13.23-6.73-18.94-4-3.28,1.6-6.06,3.24-7.42,6.24a12.58,12.58,0,0,0-1.24,6c-2.22-2-6.67-2.49-9.64-1.34-3.2,1.24-3.45,3.65-3.61,6.11a11.14,11.14,0,0,0-5.82-.11c-2,.6-3.18,2.18-2.91,3.46-1.59-.09-5.39,1.2-5,2.89.49,1.89,4.83,1.7,6.46,1.64a29.62,29.62,0,0,0,4.54-.72,6.83,6.83,0,0,0,2.36.45c2.76,0,3.93-1.2,4.38-2.23,1.35,2.84,6.15,5,9.54,5.87,6.39,1.64,15.44.64,19.38-4.13a7.07,7.07,0,0,0,1.9,2.32,11.09,11.09,0,0,0,5.91,2.39c2.63.25,9.67.58,11.66-3.59,1.41,2.78,7.68,4,12.45,3.36a19.57,19.57,0,0,0,5.34-1.61,34.61,34.61,0,0,0,3.07-1.84,2.55,2.55,0,0,1,2.61-.18c3.28,1,7.08,1.39,10.42,0C127.66,129.43,128.22,127.2,125.72,126.07Z" style="fill:#f0f0f0"></path><path id="freepik--cloud--inject-76" d="M231.82,86a9.85,9.85,0,0,0-3.28-.6c-1.06-.09-1.4-.3-1.6-.53a7.83,7.83,0,0,0-9.4-2.77,6,6,0,0,0-7.09-4c.12-3.3-4.1-6.86-7.89-7.66s-6.81-.45-8.88,1.94c-2.22-4.34-10.92-5.56-15.63-3.26-2.71,1.31-5,2.67-6.13,5.15a10.22,10.22,0,0,0-1,4.94c-1.84-1.62-5.52-2.06-8-1.11-2.64,1-2.84,3-3,5a9.33,9.33,0,0,0-4.81-.09c-1.67.5-2.63,1.8-2.4,2.86-1.32-.07-4.46,1-4.1,2.38.41,1.56,4,1.41,5.33,1.36a24.85,24.85,0,0,0,3.75-.59,5.93,5.93,0,0,0,2,.37c2.28,0,3.25-1,3.62-1.85,1.11,2.35,5.07,4.14,7.88,4.86,5.27,1.35,12.74.52,16-3.42A5.8,5.8,0,0,0,188.74,91a9.07,9.07,0,0,0,4.89,2c2.16.2,8,.48,9.62-3,1.16,2.29,6.34,3.33,10.28,2.77a16.17,16.17,0,0,0,4.4-1.33,24.71,24.71,0,0,0,2.54-1.52,2.13,2.13,0,0,1,2.16-.15,12.82,12.82,0,0,0,8.6,0C233.43,88.82,233.89,87,231.82,86Z" style="fill:#f5f5f5"></path><path id="freepik--cloud--inject-76" d="M397.27,74.34a12.68,12.68,0,0,0-4.22-.78c-1.36-.1-1.79-.38-2.05-.67a10.06,10.06,0,0,0-12.08-3.57c-.8-3.26-4.75-6.1-9.1-5.14.15-4.25-5.27-8.81-10.14-9.84-4.67-1-8.74-.58-11.4,2.49-2.85-5.57-14-7.14-20.08-4.19-3.48,1.69-6.43,3.43-7.87,6.62A13.35,13.35,0,0,0,319,65.6c-2.36-2.08-7.08-2.64-10.23-1.42-3.39,1.31-3.65,3.87-3.82,6.47a11.79,11.79,0,0,0-6.18-.11c-2.14.63-3.37,2.31-3.08,3.67-1.69-.1-5.72,1.27-5.26,3.06.52,2,5.13,1.8,6.85,1.74a32.1,32.1,0,0,0,4.81-.76,7.61,7.61,0,0,0,2.5.48c2.94,0,4.18-1.28,4.65-2.37,1.43,3,6.52,5.31,10.12,6.23,6.78,1.73,16.37.68,20.54-4.39a7.58,7.58,0,0,0,2,2.46,11.74,11.74,0,0,0,6.27,2.54c2.78.26,10.26.62,12.36-3.81,1.49,2.94,8.14,4.28,13.2,3.57a21,21,0,0,0,5.66-1.71,37.44,37.44,0,0,0,3.26-2c1-.6,1.44-.6,2.77-.2,3.47,1.05,7.5,1.48,11,0C399.33,77.91,399.92,75.54,397.27,74.34Z" style="fill:#f0f0f0"></path><path id="freepik--cloud--inject-76" d="M475.51,133a8.31,8.31,0,0,0-2.77-.52c-.9-.07-1.18-.24-1.36-.44a6.62,6.62,0,0,0-7.94-2.35,5.08,5.08,0,0,0-6-3.38c.1-2.8-3.47-5.8-6.67-6.48s-5.75-.38-7.51,1.64c-1.87-3.67-9.23-4.7-13.22-2.76-2.29,1.12-4.23,2.26-5.18,4.36a8.8,8.8,0,0,0-.86,4.17,7.34,7.34,0,0,0-6.73-.94c-2.24.87-2.41,2.55-2.52,4.27a7.79,7.79,0,0,0-4.07-.08c-1.4.42-2.21,1.53-2,2.42-1.12-.06-3.77.84-3.46,2,.34,1.32,3.37,1.19,4.5,1.15a22.1,22.1,0,0,0,3.17-.5,4.8,4.8,0,0,0,1.65.31c1.93,0,2.74-.84,3.05-1.55.95,2,4.3,3.49,6.67,4.1,4.46,1.14,10.77.44,13.52-2.89a5,5,0,0,0,1.33,1.62,7.8,7.8,0,0,0,4.13,1.67c1.83.17,6.75.41,8.13-2.51,1,1.94,5.36,2.82,8.69,2.35a13.69,13.69,0,0,0,3.73-1.13,22,22,0,0,0,2.14-1.28,1.78,1.78,0,0,1,1.83-.13,10.92,10.92,0,0,0,7.27,0C476.87,135.32,477.26,133.76,475.51,133Z" style="fill:#f5f5f5"></path></g><g id="freepik--Sun--inject-76"><circle id="freepik--sun--inject-76" cx="107.33" cy="67.27" r="17.65" transform="translate(23.74 162.44) rotate(-80.78)" style="fill:#ffbda7"></circle></g><g id="freepik--Shadows--inject-76"><path id="freepik--Shadow--inject-76" d="M102.3,222.33c-.68.09-1.33.19-2,.31l13.21,12c-12.29-.51-28.19-2.85-38.19,5.53A76.52,76.52,0,0,1,110,256.4a197.46,197.46,0,0,1-21.62-.88,5.33,5.33,0,0,1,2.92,3.31C67.91,254.34,80,265,92,271.76a102.87,102.87,0,0,0-52.73,7.39L72.62,287c-38.56,8.94-71.48,41.23-6.82,29l-16.23,7.51a96.53,96.53,0,0,0,44.64,3.68c-16.35,7.2-39.55,47.71-7.3,34.64l-8.27,8.43c20.3,3.32,40.31-5.41,60.4-7.09a36.18,36.18,0,0,0-16.7,12.46l26.17-.51L133,383a96.41,96.41,0,0,0,37.5.77,38.52,38.52,0,0,0-23.93,26.9A82,82,0,0,1,180.14,402c-17.4,15.46,10.87,11.15,19.63,4.74-1.14,7.63,6.46,17.19,13.68,20.17-1.22-.65,4.13-7.7,4.77-8.22,10.94,15.7,24,31.1,40.46,41.35l-1-19.22c5.61,13.7,15.13,17,14.88-.76,9,13.86,15,25.2,34.16,27.49a31,31,0,0,1-4-19.16l5.61,4a33.73,33.73,0,0,0,.61-21.63c11.61.52,16.18,13.94,24.83,19.67a30.21,30.21,0,0,0-2.31-14.27,152.2,152.2,0,0,1,28.82,17.27,22.67,22.67,0,0,0-.2-19.17,76.84,76.84,0,0,0,7.44,5.4c5.74-14.53,1.17-30.93-7.13-43.69a35.51,35.51,0,0,1,28,17c4.42-35.37-7.74-21.31,44.26-8.2l-3.62-9.57c.52,1.36,17.13,6.76,19.36,7.79-4.86-10.49-6.38-21-13.42-30.79,9.66,1.48,17.36,8.57,24.41,15.34A33,33,0,0,0,452.16,363a128.47,128.47,0,0,1,19.68,8.54,61.09,61.09,0,0,0-24.45-41.68,53,53,0,0,1,22,4.53c-12.91-21.1-37.84-29.66-60.35-36.67,11.35-.74,25.51-3,30.58-14.57l-17.27-1.7A40.15,40.15,0,0,1,431,277.1a87.51,87.51,0,0,0-49.66-5.36,137.68,137.68,0,0,0,22.44-19.23,67.86,67.86,0,0,0-40.49,2.69A19,19,0,0,0,360.85,245a48.47,48.47,0,0,0-3,5.95,51.39,51.39,0,0,0-20.08-21c.84,46.2-22.94-29.4-38.44-30.94a43,43,0,0,1-.37,16q-3-5-6-10a24.77,24.77,0,0,0-5.93,11.49,39.43,39.43,0,0,1-2.84-22.28,25,25,0,0,0-25.16,14.38A58.43,58.43,0,0,0,218,183.29a28.31,28.31,0,0,1,6.78,16.09,44,44,0,0,0-16.55-9.62,32.49,32.49,0,0,0,1,11.86,96.11,96.11,0,0,0-25.36-8.37q5.29,11.43,10.84,22.74a43.5,43.5,0,0,0-25.77-5.8l2.92,3.34c-12.68,1.38-25.66-.47-38.52.61a78.61,78.61,0,0,0,13.63,19.58C138,224.41,115.3,220.63,102.3,222.33Z" style="fill:#e0e0e0"></path><path id="freepik--shadow--inject-76" d="M126.56,386.28c14.35,8.29,14.35,21.73,0,30s-37.63,8.29-52,0-14.35-21.73,0-30S112.2,378,126.56,386.28Z" style="fill:#e0e0e0"></path></g><g id="freepik--Nest--inject-76"><g id="freepik--nest--inject-76"><path d="M102.3,208.17c-.68.09-1.33.19-2,.31l13.21,12a98.22,98.22,0,0,0-27.34.62c-4,.66-8.29,1.75-10.85,4.91A76.52,76.52,0,0,1,110,242.24a197.46,197.46,0,0,1-21.62-.88,5.33,5.33,0,0,1,2.92,3.31l-12.81-1a1.19,1.19,0,0,0-1,.2c-.37.36-.13,1,.15,1.44A31.41,31.41,0,0,0,92,257.6c-7.21-1.59-17.61-.63-25.08.13A91.43,91.43,0,0,0,39.27,265l33.35,7.84C60.83,276.05,49,279.86,39,287c-6,4.26-11.51,10.69-10.78,18L65.8,301.8l-16.23,7.51A96.66,96.66,0,0,0,94.21,313a65.26,65.26,0,0,0-13.77,11.52C73.68,332,68.53,342.43,71.73,352a59.51,59.51,0,0,1,15.18-4.34q-4.14,4.2-8.27,8.42c.88-.9,11.63.81,13.47.77a87.33,87.33,0,0,0,15.47-1.71c10.9-2.2,20.19-6.16,31.46-6.15a36.2,36.2,0,0,0-16.7,12.47l26.17-.52-15.5,7.9a96.6,96.6,0,0,0,37.5.76,38.54,38.54,0,0,0-23.93,26.9,82.36,82.36,0,0,1,33.56-8.62A14,14,0,0,0,174,398.39a43.89,43.89,0,0,0,25.79-5.79c-1.3.76,2.06,9.57,2.87,10.95,2.28,3.93,6.87,7.14,10.81,9.22-1.22-.64,4.13-7.7,4.77-8.21,4.4,7.26,10.66,13.8,16.2,20.35a102.91,102.91,0,0,0,24.26,21l-1-19.22a69.36,69.36,0,0,0,9.82,14,20.14,20.14,0,0,0,5.06-14.73c4.32,2.93,5.4,8.71,8.09,13.18,5.26,8.73,16.17,11.88,26.07,14.32a31,31,0,0,1-4-19.17l5.61,4A33.71,33.71,0,0,0,309,416.6c5.42.11,10.06,3.87,13.64,7.95s6.67,8.72,11.19,11.71A30.15,30.15,0,0,0,331.53,422a151.63,151.63,0,0,1,28.82,17.26,22.67,22.67,0,0,0-.2-19.17,76.84,76.84,0,0,0,7.44,5.4c2.48-7.54,3.46-12.91,2-21.06a60.88,60.88,0,0,0-9.08-22.63,35.51,35.51,0,0,1,28,17c-.23-.39,1.87-6.06,2-7.09.29-3.28-.61-6-1.19-9.11-1.09-6,1.37-7,7.06-4.74,12.17,4.76,23.54,9.95,36.43,12.75q-1.82-4.8-3.62-9.58c.52,1.36,17.13,6.76,19.36,7.8-4.86-10.49-6.38-21-13.42-30.8,9.66,1.48,17.36,8.58,24.41,15.34a33,33,0,0,0-7.29-24.57,127.45,127.45,0,0,1,19.68,8.53,61.14,61.14,0,0,0-24.45-41.68,53,53,0,0,1,22,4.53c-6.24-10.3-16-18.07-26.68-23.7s-22.19-9.32-33.67-13c5.93-.52,11.95-1,17.52-3.13s10.75-6,13.06-11.45l-17.27-1.7a40.62,40.62,0,0,1,8.65-4.31,87.51,87.51,0,0,0-49.66-5.36,137.68,137.68,0,0,0,22.44-19.23,67.78,67.78,0,0,0-40.49,2.7,19,19,0,0,0-2.46-10.17,48.47,48.47,0,0,0-3,6,51.41,51.41,0,0,0-20.08-21.05c-.41,4,.74,9.32-.89,13.08-2.78,6.42-7.24-1.72-9.31-5.58-7.62-14.23-14.22-30.45-28.24-38.44a43,43,0,0,1-.37,16q-3-5-6-10a24.75,24.75,0,0,0-5.93,11.5,39.47,39.47,0,0,1-2.84-22.29,25,25,0,0,0-25.16,14.38A58.46,58.46,0,0,0,218,169.13a28.31,28.31,0,0,1,6.78,16.09,44,44,0,0,0-16.55-9.62,32.49,32.49,0,0,0,1,11.86,96.11,96.11,0,0,0-25.36-8.37q5.29,11.43,10.84,22.74a43.5,43.5,0,0,0-25.77-5.8l2.92,3.35c-12.68,1.37-25.66-.47-38.52.61a78.56,78.56,0,0,0,13.63,19.57C138,210.25,115.3,206.48,102.3,208.17Z" style="fill:#BA68C8"></path><path d="M102.3,208.17c-.68.09-1.33.19-2,.31l13.21,12a98.22,98.22,0,0,0-27.34.62c-4,.66-8.29,1.75-10.85,4.91A76.52,76.52,0,0,1,110,242.24a197.46,197.46,0,0,1-21.62-.88,5.33,5.33,0,0,1,2.92,3.31l-12.81-1a1.19,1.19,0,0,0-1,.2c-.37.36-.13,1,.15,1.44A31.41,31.41,0,0,0,92,257.6c-7.21-1.59-17.61-.63-25.08.13A91.43,91.43,0,0,0,39.27,265l33.35,7.84C60.83,276.05,49,279.86,39,287c-6,4.26-11.51,10.69-10.78,18L65.8,301.8l-16.23,7.51A96.66,96.66,0,0,0,94.21,313a65.26,65.26,0,0,0-13.77,11.52C73.68,332,68.53,342.43,71.73,352a59.51,59.51,0,0,1,15.18-4.34q-4.14,4.2-8.27,8.42c.88-.9,11.63.81,13.47.77a87.33,87.33,0,0,0,15.47-1.71c10.9-2.2,20.19-6.16,31.46-6.15a36.2,36.2,0,0,0-16.7,12.47l26.17-.52-15.5,7.9a96.6,96.6,0,0,0,37.5.76,38.54,38.54,0,0,0-23.93,26.9,82.36,82.36,0,0,1,33.56-8.62A14,14,0,0,0,174,398.39a43.89,43.89,0,0,0,25.79-5.79c-1.3.76,2.06,9.57,2.87,10.95,2.28,3.93,6.87,7.14,10.81,9.22-1.22-.64,4.13-7.7,4.77-8.21,4.4,7.26,10.66,13.8,16.2,20.35a102.91,102.91,0,0,0,24.26,21l-1-19.22a69.36,69.36,0,0,0,9.82,14,20.14,20.14,0,0,0,5.06-14.73c4.32,2.93,5.4,8.71,8.09,13.18,5.26,8.73,16.17,11.88,26.07,14.32a31,31,0,0,1-4-19.17l5.61,4A33.71,33.71,0,0,0,309,416.6c5.42.11,10.06,3.87,13.64,7.95s6.67,8.72,11.19,11.71A30.15,30.15,0,0,0,331.53,422a151.63,151.63,0,0,1,28.82,17.26,22.67,22.67,0,0,0-.2-19.17,76.84,76.84,0,0,0,7.44,5.4c2.48-7.54,3.46-12.91,2-21.06a60.88,60.88,0,0,0-9.08-22.63,35.51,35.51,0,0,1,28,17c-.23-.39,1.87-6.06,2-7.09.29-3.28-.61-6-1.19-9.11-1.09-6,1.37-7,7.06-4.74,12.17,4.76,23.54,9.95,36.43,12.75q-1.82-4.8-3.62-9.58c.52,1.36,17.13,6.76,19.36,7.8-4.86-10.49-6.38-21-13.42-30.8,9.66,1.48,17.36,8.58,24.41,15.34a33,33,0,0,0-7.29-24.57,127.45,127.45,0,0,1,19.68,8.53,61.14,61.14,0,0,0-24.45-41.68,53,53,0,0,1,22,4.53c-6.24-10.3-16-18.07-26.68-23.7s-22.19-9.32-33.67-13c5.93-.52,11.95-1,17.52-3.13s10.75-6,13.06-11.45l-17.27-1.7a40.62,40.62,0,0,1,8.65-4.31,87.51,87.51,0,0,0-49.66-5.36,137.68,137.68,0,0,0,22.44-19.23,67.78,67.78,0,0,0-40.49,2.7,19,19,0,0,0-2.46-10.17,48.47,48.47,0,0,0-3,6,51.41,51.41,0,0,0-20.08-21.05c-.41,4,.74,9.32-.89,13.08-2.78,6.42-7.24-1.72-9.31-5.58-7.62-14.23-14.22-30.45-28.24-38.44a43,43,0,0,1-.37,16q-3-5-6-10a24.75,24.75,0,0,0-5.93,11.5,39.47,39.47,0,0,1-2.84-22.29,25,25,0,0,0-25.16,14.38A58.46,58.46,0,0,0,218,169.13a28.31,28.31,0,0,1,6.78,16.09,44,44,0,0,0-16.55-9.62,32.49,32.49,0,0,0,1,11.86,96.11,96.11,0,0,0-25.36-8.37q5.29,11.43,10.84,22.74a43.5,43.5,0,0,0-25.77-5.8l2.92,3.35c-12.68,1.37-25.66-.47-38.52.61a78.56,78.56,0,0,0,13.63,19.57C138,210.25,115.3,206.48,102.3,208.17Z" style="fill:#fff;opacity:0.5"></path><g style="opacity:0.30000000000000004"><path d="M80.14,314.1a91.8,91.8,0,0,1-13.87-5.77,42.87,42.87,0,0,1,12.8-8.7,294.85,294.85,0,0,0-48.86-3.31,14.61,14.61,0,0,0-2,8.64L65.8,301.8l-16.23,7.51A96.44,96.44,0,0,0,80.14,314.1Z" style="fill:#BA68C8"></path><path d="M385.55,387.94a40.31,40.31,0,0,0-29.36-10.43c1.71,1.65,3.32,3.41,4.86,5.22-.2-.3-.38-.62-.59-.93a35.51,35.51,0,0,1,28,17c-.18-.31,1.06-3.84,1.66-5.85A38.85,38.85,0,0,0,385.55,387.94Z" style="fill:#BA68C8"></path><path d="M471.41,354.43a54.54,54.54,0,0,0-16.08-9.83c-5.16-2.11-10.8-3.67-16.28-2.64l12.73,16.09c-7.87-6.14-18.42-10-28.47-9.42a126,126,0,0,0,12.61,9.55l0,0c9.23,1.77,16.66,8.62,23.49,15.16a33,33,0,0,0-7.29-24.57,127.45,127.45,0,0,1,19.68,8.53C471.72,356.37,471.58,355.4,471.41,354.43Z" style="fill:#BA68C8"></path><path d="M332.56,435.32a78,78,0,0,0-6.24-12.38A38.47,38.47,0,0,0,316.85,412c-3.64-2.68-8.85-4.89-13.41-3.91,2,3,3.88,6,5.73,9-.05-.19-.1-.38-.16-.56,5.42.11,10.06,3.87,13.64,7.95C325.88,428.22,328.72,432.35,332.56,435.32Z" style="fill:#BA68C8"></path><path d="M145.34,368.07A123.53,123.53,0,0,1,164.56,363,59.47,59.47,0,0,0,137,357a44,44,0,0,1,14.73-8.59c-6.64-3.36-14.47-3.27-21.87-2.48a132.42,132.42,0,0,0-27,5.82C98,353.32,93,355.24,88,356.44c1.91.22,3.53.4,4.15.39a87.33,87.33,0,0,0,15.47-1.71c10.9-2.2,20.19-6.16,31.46-6.15a36.2,36.2,0,0,0-16.7,12.47l26.17-.52-15.5,7.9a96.39,96.39,0,0,0,25.8,2.1l.28-.12A73.1,73.1,0,0,1,145.34,368.07Z" style="fill:#BA68C8"></path><path d="M233.53,419.28c-1.3-2.17-15.5-25.61-13.86-26.89a26.91,26.91,0,0,0-9.27,13.75,18.75,18.75,0,0,1-4.49-21.31l-21.08,7.45a11.79,11.79,0,0,1,4.64-7.41,38.81,38.81,0,0,0-26.77,1.5,41.76,41.76,0,0,0-12.59,8.45,82.39,82.39,0,0,1,30-7A14,14,0,0,0,174,398.39a43.89,43.89,0,0,0,25.79-5.79c-1.3.76,2.06,9.57,2.87,10.95,2.28,3.93,6.87,7.14,10.81,9.22-1.22-.64,4.13-7.7,4.77-8.21,4.4,7.26,10.66,13.8,16.2,20.35a101.4,101.4,0,0,0,8.78,9.17Q238.08,426.87,233.53,419.28Z" style="fill:#BA68C8"></path></g><path d="M139.78,319.11a13.68,13.68,0,0,1,8.78-7.08c1.55-.41,0-2.19-.83-2.38-6.45-1.44-13-.57-19.5.23-5.72.7-11.62,1.33-17.17-.27a32,32,0,0,1,6.93-3c1.48-.43.86-2-.17-2.54a83.55,83.55,0,0,0-16.57-6.34c8.14-1.54,16.49-.5,24.76.4,1.64.17,1.43-1.55.48-2.26a90.15,90.15,0,0,0-41.91-17.47c-.64-.08-.38,1.24.13,1.34A99.14,99.14,0,0,1,121.34,295c-8.94-1.14-18.14-1.53-26.74,1.42-1.61.56-.74,2.41.59,2.67a81.8,81.8,0,0,1,18.36,5.9,34.32,34.32,0,0,0-6.92,3.62c-1,.7-.47,2,.5,2.39,11.56,5.21,23.88-.16,35.88.47a15.79,15.79,0,0,0-6.62,8.12c-.36,1,.93,1.7,1.7,1.75a128.11,128.11,0,0,1,23.48,4.09c.88.22.57-1.29,0-1.52A73.32,73.32,0,0,0,139.78,319.11ZM306,350.88c-.67-.44-.67.95-.25,1.29A205.05,205.05,0,0,1,322,366.5c4.91,4.85,10.13,11.18,9.37,18.45A122.5,122.5,0,0,0,304.18,369c-2.45-1-4.93-2-7.45-2.85-1.73-.59-3.87-1.4-5.65-.55-2,.95-2.15,3.57-2.57,5.45-.61,2.73-1.21,5.47-1.82,8.21-.84-1.14-1.68-2.26-2.51-3.4-1.14-1.55-2.23-3.52-3.7-4.77a4.93,4.93,0,0,0-2.76-1.15c-2.76-.4-4.67-.59-6.6-2.94-.3-.38-1.15-.72-1.48-.17l-.83,1.35a36.72,36.72,0,0,0-6.31-7.11c-.29-.25-.92-.38-1.18,0a51.19,51.19,0,0,1-7,8.46c-3.61-5.32-3.83-11.91-1.51-17.88.06-.15-.06-.66-.25-.37-4.2,6.2-3.12,14.55,1.25,20.39.28.37.81.68,1.22.3a51.85,51.85,0,0,0,7.41-8.33,34.13,34.13,0,0,1,5.83,7c.28.44,1.27,1.18,1.71.45l.93-1.53a9.13,9.13,0,0,0,2.12,1.61c1.7.9,3.2.76,5,1.15,2.19.45,3.39,2.84,4.64,4.53s2.67,3.6,4,5.42c.31.42,1.34.77,1.52,0,.61-2.54,1.21-5.08,1.82-7.62s.8-7.33,4.31-6.79c4.62.7,9.66,3.4,13.86,5.36A120.38,120.38,0,0,1,332,388.06c.44.34,1.29.28,1.43-.36,1.52-7.4-2.26-14-7-19.46A96,96,0,0,0,306,350.88Zm131.32-33.73a82.08,82.08,0,0,0-43.24-20.6c-.9-.13-1,1.63-.22,1.76a84.54,84.54,0,0,1,39.1,17.62c-5-1.3-10.08-2.49-15.2-3.31a97.65,97.65,0,0,0-10.09-1.3c-2.15-.12-4.26.12-5.73,1.83a1.68,1.68,0,0,0,.48,2.4l7.07,5c1,.74,3.39,1.56.71,2.33-1,.28-2.23-.2-3.24-.28-2.56-.21-6,.77-5.63,4,.13,1.12,1.51,2.74-.81,3.45-1.39.42-3.75-1.26-5-1.81a58.5,58.5,0,0,0-6.29-2.32,44.22,44.22,0,0,0-14.9-2.31c-1.05.06-.56,2.2.33,2.33,7,1,13.84,2.05,20.43,4.88,2.07.89,4.72,2.71,7.08,1.83a3.37,3.37,0,0,0,2-4.42c-1.88-5.71,8.68.07,9.87-4.8.43-1.77-1-3.17-2.21-4.14-2.22-1.72-4.57-3.3-6.89-4.89,1.52-.65,3.38-.39,5-.21,3.11.32,6.21.76,9.31,1.25a171.76,171.76,0,0,1,17.65,3.69C438,319.47,437.74,317.56,437.29,317.15ZM202.68,224.6c13,.1,24.92,7.55,35.32,14.78a.62.62,0,0,0,.6.09,4.19,4.19,0,0,1,5.21.15c.82.7,1.52-.24,1.09-1.07a31.92,31.92,0,0,1-2-4.7,15.92,15.92,0,0,1,6.77,3.75c.62.57,1.31.11,1.29-.65-.3-8.76-5.39-15.93-10.89-22.39A53.86,53.86,0,0,1,271,239.5c.45.79,1.11-.2.8-.8a53.69,53.69,0,0,0-34.56-27.14c-1-.24-.93,1.22-.5,1.71,5.45,6.2,11.18,13,12.19,21.39a17.3,17.3,0,0,0-7.39-3.28c-.67-.12-.94.57-.77,1.12a34.8,34.8,0,0,0,1.63,4.38,4.94,4.94,0,0,0-1.4-.33,8.75,8.75,0,0,0-2,.26c-1.52.24-1.77,0-3.11-.93A119.73,119.73,0,0,0,224,228.39c-8-4.26-16.57-7-25.67-6.26-1.2.11-.38,2,.18,2.31,7.82,4.89,16.85,11.51,14.95,22.22-.06.33.38,1.31.67.64C218.28,237.64,210.28,229.84,202.68,224.6Z" style="fill:#BA68C8;opacity:0.5"></path></g></g><g id="freepik--egg-3--inject-76"><g id="freepik--Egg--inject-76"><path d="M368.62,288.91a40.12,40.12,0,0,1,24.27,17.36,11.79,11.79,0,0,1-3.56,16.28,40.14,40.14,0,0,1-29.3,5.63c-.34-.06-.68-.12-1-.2s-.67-.16-1-.25a20.12,20.12,0,0,1,8.6-39.26c.34.06.68.12,1,.2S368.29,288.82,368.62,288.91Z" style="fill:#f5f5f5"></path><path d="M355.08,290a17.81,17.81,0,0,0-2.08,1.08,20,20,0,0,0-4,3.08l-.07.08a20,20,0,0,0-5.31,9.81,18.57,18.57,0,0,0-.38,2.43A20.13,20.13,0,0,0,358,327.74l1,.25c.34.07.67.14,1,.19,1.18.23,2.35.39,3.53.52a39.84,39.84,0,0,0,6.17.15c1-.05,1.91-.13,2.86-.25a40.09,40.09,0,0,0,7.33-1.62c1.16-.37,2.3-.8,3.42-1.27-8,2.44-26.55,1-33.2-10S348,293.27,355.08,290Z" style="opacity:0.1"></path></g></g><g id="freepik--egg-2--inject-76"><g id="freepik--egg--inject-76"><path d="M150,274a40.07,40.07,0,0,0-25.55,15.41A11.78,11.78,0,0,0,126.71,306a40.12,40.12,0,0,0,28.78,7.89l1-.12c.34,0,.68-.1,1-.17A20.12,20.12,0,0,0,152,273.75c-.34,0-.69.07-1,.12S150.32,274,150,274Z" style="fill:#f5f5f5"></path><path d="M163.4,276.15a20.54,20.54,0,0,1,5.69,4.62l.06.09a19.85,19.85,0,0,1,4.54,10.19,18.5,18.5,0,0,1,.19,2.45,20.14,20.14,0,0,1-9.79,17.58,19.92,19.92,0,0,1-6.55,2.49c-.33.07-.67.12-1,.17s-.68.09-1,.11c-1.19.14-2.38.21-3.57.24a39.17,39.17,0,0,1-6.15-.33c-1-.12-1.9-.28-2.84-.47a40.23,40.23,0,0,1-7.18-2.18c-1.13-.46-2.23-1-3.31-1.54,7.76,3.06,26.4,3,33.87-7.34S170.16,280,163.4,276.15Z" style="opacity:0.1"></path></g></g><g id="freepik--Hen--inject-76"><g id="freepik--Chicken--inject-76"><path d="M331.8,178.6a88.79,88.79,0,0,0-38.28-15.34c-14.15-2.22-27.9-1.44-41.28-7.68-4.37-2-8.58-4.56-13.26-5.68-3.34-.79-7.23-.7-9.73,1.64-3.57,3.34-2.51,9.26-.36,13.65A40.06,40.06,0,0,0,237.7,177c-4.56.35-7.93,5-8,9.6s2.45,8.83,5.64,12.12a31.5,31.5,0,0,0,14.93,8.58c-3.05.8-4.05,4.66-3.8,7.79.48,6.08,3.59,11.73,7.74,16.19,3.86,4.15,9,8.53,14.51,10,6,1.63,11.5,4.31,17.45,6.11a90.07,90.07,0,0,0,42,2.32c6.07-1.1,12.17-2.85,17.2-6.41a44.57,44.57,0,0,0,13.08-15.78c2.7-5.42.89-10.66-1.17-16.08A73,73,0,0,0,331.8,178.6Z" style="fill:#b16668"></path><path d="M246.47,215.05c.48,6.08,3.59,11.73,7.74,16.19a43.63,43.63,0,0,0,8.94,7.57,50.67,50.67,0,0,1-7.9-18.48,16.46,16.46,0,0,1-.09-7.86c.76-2.54,2.82-4.85,5.44-5.18a50.59,50.59,0,0,1-19-12.87c-2.26-2.45-4.36-5.38-4.37-8.7s3.06-6.76,6.28-5.92c-2-6.15-7-10.72-7.93-17.47-.57-4,.63-8.57,4-10.89a9.11,9.11,0,0,1,1.63-.87c-.74-.25-1.49-.48-2.25-.67-3.34-.79-7.23-.7-9.73,1.64-3.57,3.34-2.51,9.26-.36,13.65A40.06,40.06,0,0,0,237.7,177c-4.56.35-7.93,5-8,9.6s2.45,8.83,5.64,12.12a31.5,31.5,0,0,0,14.93,8.58C247.22,208.06,246.22,211.92,246.47,215.05Z" style="fill:#f0997a"></path><path d="M374.35,284.53c4.56-18.21,2.25-37.37-1.21-49.6-4.24-15-29.93-18.31-40.33-29.86-16.25-18-37.87-32.46-62.23-36.12-13.71-2.06-27.87-.93-41.29-4.4a61.87,61.87,0,0,1-17.35-7.49c-5.41-3.4-9.22-7.27-13.79-11.68-2.94-2.83-6.23-5.58-10.22-6.43-4.84-1-9.77.92-14.34,2.84-2.81-3.77-5.82-7.54-9.87-9.93s-9.37-3.16-13.4-.75c-3.45,2-5.38,6-5.91,10s.16,8,.83,12c-8.06,2.83-10.81,14.83-10.48,22.32.48,11,5.51,21.18,9,31.61,6.84,20.47,7.8,42.37,12.1,63.52,5.21,25.68,16.39,51.57,37.59,67a87.22,87.22,0,0,0,22.27,11.42,111.64,111.64,0,0,0,54.17,4.84c9.59-1.49,17.34-3.86,26.52-6.62,7.16-2.14,15.94-1,28.08-4.37,16.48-4.55,28-12.86,37.36-27.18C367.12,307.5,370.75,298.89,374.35,284.53Z" style="fill:#c8856a"></path><path d="M373.14,234.93c-4.24-15-29.93-18.31-40.33-29.86q-1.55-1.71-3.13-3.36a74.36,74.36,0,0,0-38.5,2.59c-5.35,1.88-10.83,4.8-13.24,9.93l-4.86,1.33a12.57,12.57,0,0,0,9.36,20.59A20.33,20.33,0,0,0,307,262.32c2.18,6.6,6.56,12.74,12.87,15.67s14.6,1.95,19.14-3.32c3.74,5.45,10,9.32,16.59,9.39s13.26-4.06,15.4-10.3a13.7,13.7,0,0,0,5.3,0A104.94,104.94,0,0,0,373.14,234.93Z" style="fill:#af6152"></path><path d="M376,134.37a39.64,39.64,0,0,0-28.42-7.6c-11,1.36-21.06,7.41-28.93,15.23a99.46,99.46,0,0,0-15.79,21.17c-4,7-6.91,13.76-14.54,17.69-2.73,1.41-5.7,2.33-8.34,3.91-3.19,1.9-5.9,4.93-6.61,8.58s1,7.86,4.38,9.34c-2-.85-6.83,7.44-7.3,9-3.45,11.14,6,16.22,15.3,17.59-.72,6-.14,12.28,2.73,17.57a19.14,19.14,0,0,0,9,8.43c1.07.47,5.43,2.31,12.32-.41,1.54,6.07,5.56,12.42,11.31,14.89s13,1.61,17.57-2.62c4.27,4.65,10.21,8.05,16.51,8.15s12.82-3.59,15-9.53a4.47,4.47,0,0,1,1.53-2.59,6,6,0,0,1,2.58-.38c2.79-.22,5-2.64,5.84-5.31s.48-5.55,0-8.3c-1.48-8-4.35-15.68-5-23.79-.38-5-.78-14.39,4.41-17.25,2.93-1.61,6.64-.82,9.77-2,6.16-2.27,7.27-10.35,7.36-16.92C396.84,170.72,391.64,146.19,376,134.37Z" style="fill:#f0f0f0"></path><path d="M380,249.15c-1.48-8-4.35-15.68-5-23.79-.38-5-.78-14.39,4.41-17.25a6.69,6.69,0,0,1,.91-.41,32.71,32.71,0,0,0-3.35-3.89,29.08,29.08,0,0,0-17.24-8.1c-6.26-.65-12.45,1-18.11,3.65-4.85,2.24-4.11,8.27,0,11.27,3.15,2.34,7.33,2.66,11.26,2.67a31,31,0,0,0-4.77,11.22,26.9,26.9,0,0,0,.3,13.83,17.76,17.76,0,0,0,14.43,12.12,11.28,11.28,0,0,0,9.92-3.64,12.63,12.63,0,0,0,7.63,4.89C380.29,250.86,380.16,250,380,249.15Z" style="fill:#e0e0e0"></path><path d="M311.11,176.13a14.44,14.44,0,0,0-1.89,6.55,11.6,11.6,0,0,0,2.41,6.93,11.41,11.41,0,0,0,6.36,4.16,10.48,10.48,0,0,0,4.46,0,7.81,7.81,0,0,0,3-1.57c.23-.16.17-.9-.2-.81-3.88,1-8.69.06-11.11-3.34a9.18,9.18,0,0,1-1.68-5c-.09-2.62,1.17-5.1,2.34-7.36.44-.83-.77-1.75-1.47-1.76a5.45,5.45,0,0,1-5-4.64c-.57-3,.57-5.94,1.94-8.51.19-.35-.17-1.33-.65-.94-2.86,2.28-4.76,6-4.05,9.75A8.73,8.73,0,0,0,311.11,176.13ZM344,242.26c-4.1,3.24-9.92,4.67-14.74,2.25a13,13,0,0,1-7-10.33,1.81,1.81,0,0,0-2.23-1.6c-5.31.84-11.63,1.45-16-2.39a9.44,9.44,0,0,1-3-6.55,16.53,16.53,0,0,1,.25-3.91c.17-1,.48-2.1.6-3.15a17.24,17.24,0,0,0,6.19,1.53,18.43,18.43,0,0,0,5.34-.47,13.15,13.15,0,0,0,5.13-2.17c1.4-1.14-.65-2.7-1.9-2.21A31.33,31.33,0,0,1,312.2,215a14.28,14.28,0,0,1-4.17.36A12.3,12.3,0,0,1,300.2,212a12.57,12.57,0,0,1-3.64-7.06c-.47-3.2.85-5.91,1.65-8.92.18-.68-1.09-1.84-1.63-1.14a13.83,13.83,0,0,0-3,11,15.29,15.29,0,0,0,4.94,8.53,14.4,14.4,0,0,0,1.4,1.07,12.85,12.85,0,0,0-1.33,3.4,17.45,17.45,0,0,0-.62,4.87,11.6,11.6,0,0,0,3.61,8.29c4.69,4.44,11.17,4.61,17.23,3.86a15.75,15.75,0,0,0,9.84,11.87,16.25,16.25,0,0,0,8.69.55,12.5,12.5,0,0,0,7.67-4.74C345.42,243,344.56,241.78,344,242.26Zm17.72-14.84a9.6,9.6,0,0,1-6.32,4.1,16.58,16.58,0,0,1-8.23-.75,11.34,11.34,0,0,1-5.08-3.89c-1.83-2.44-2.21-5.19-3-8.06-.17-.62-1.42-1.72-1.86-.68-1.27,3-.32,6.39,1.22,9.1a14.88,14.88,0,0,0,7.1,6.31,20.15,20.15,0,0,0,10.79,1c3.31-.59,7-2.48,8.45-5.66C365.47,227.27,362.65,226.11,361.67,227.42Z" style="fill:#e0e0e0"></path><path d="M341.61,165.3c-4.54,8.67-2.86,19.75,2.68,27.82-3.53,1.82-6.71,3.73-6.76,8.12-.11,8.94,12,9.81,17.19,5.24A42,42,0,0,0,349,224c-.31,6.33.9,11.51,2.82,14.45,2.91,4.45,6.86,7.9,12.12,8.69s10.21-2.61,10.3-7.93c1.44,4.39,2.68,6.43,5.74,8.84s9.13,2.34,11.54-.71c2.75-3.47.86-7.65-1.34-11.49,1.81,2.91,6.72,2.31,8.63-.52s1.32-6.76-.37-9.74-4.31-5.28-6.62-7.8a20.25,20.25,0,0,1-3.82-5.53c-.9-2.1-1.44-3.53.9-4.48,5.15-2.12,8.63-7.18,10.2-12.52s1.52-10.11,1.08-15.61A51,51,0,0,0,396.92,164c-1.06-2.57-2.2-5.54-4.32-7.45-3-2.67-5.88-.49-8.21,2-1.32,1.41-2.45,3.1-4.2,3.92-2.18,1-4.81.38-6.91-.8s-3.87-2.86-5.9-4.15a16.68,16.68,0,0,0-12.54-2.24A19.33,19.33,0,0,0,341.61,165.3Z" style="fill:#BA68C8"></path><path d="M398.79,235.28a6.89,6.89,0,0,0,.89-2,5,5,0,0,1-3.38,1.17c-4.92-.09-7.71-3.85-9.83-9,.87,4,2.31,6.75,3.69,10.29C392,238.71,396.88,238.11,398.79,235.28Z" style="opacity:0.2"></path><path d="M391.5,247.29c.1-.12.17-.24.26-.36a8.81,8.81,0,0,1-12-3.5c-1.72-3.19-3.31-6.45-4.83-9.75-1.45-3.13-3.31-6.38-6.21-8.4a32.82,32.82,0,0,1,3.46,6.78c1,2.32,1.3,4.74,2.07,7.1,1.44,4.39,2.68,6.43,5.74,8.84S389.09,250.34,391.5,247.29Z" style="opacity:0.2"></path><path d="M366.84,236.62a48.4,48.4,0,0,0-4.91-1.26,10.88,10.88,0,0,1-6.81-5.56,4.47,4.47,0,0,0-.75-1.31,1.21,1.21,0,0,0-1.38-.32,1.64,1.64,0,0,0-.62,1.26c-.49,3.49,1.39,7.49,3.45,10.29,2.33,3.16,6.74,5.74,10.69,4.72,1.93-.49,3.7-2.22,3.52-4.21A4.72,4.72,0,0,0,366.84,236.62Zm-14-10.52a2.13,2.13,0,0,0,1.4-1.36c.35-1,.41-3.32-1-3.37s-2,1.81-2.13,2.86a2.15,2.15,0,0,0,.07,1.1A1.47,1.47,0,0,0,352.85,226.1Z" style="fill:#fff;opacity:0.2"></path><path d="M389.36,214.67a16.48,16.48,0,0,1-1.38-2.46c-.9-2.1-1.44-3.53.9-4.48a14.89,14.89,0,0,0,4-2.47c-.63-.81-1.28-1.59-2-2.33-4.43-4.76-10.22-8-16-11a7.84,7.84,0,0,0-2.82-1l-3.49.1a4.55,4.55,0,0,0-.87,3.44A11.86,11.86,0,0,0,368.8,198a70.66,70.66,0,0,0,5,9.27,12.41,12.41,0,0,0,3,3.54,12.6,12.6,0,0,0,3.8,1.68A84.72,84.72,0,0,0,389.36,214.67Z" style="opacity:0.2"></path><path d="M395.56,162.75a9.65,9.65,0,0,0-1.87-3.36,4.59,4.59,0,0,0-6.56-.23c-1.67,1.43-2.87,3.56-4.79,4.66a8.84,8.84,0,0,1-3.89,1c-.81,0-1.86.21-2,1s.59,1.24,1.25,1.5a7.59,7.59,0,0,0,5.49,0c1-.38,1.83-1,2.76-1.42.67-.34,1.22-.8,1.89-1.14a4.39,4.39,0,0,1,4.27.16c.47.3.88.7,1.37,1a3.81,3.81,0,0,0,2,.54.75.75,0,0,0,.54-.17.8.8,0,0,0,.17-.59A9.12,9.12,0,0,0,395.56,162.75Zm-22.62.34a1.13,1.13,0,0,0-.58,0,1,1,0,0,0-.55.83,1.82,1.82,0,0,0,.85,1.67,2.19,2.19,0,0,0,1.09.4,1,1,0,0,0,.95-.57C375.14,164.38,374,163.24,372.94,163.09Z" style="fill:#fff;opacity:0.2"></path><path d="M385.69,177.65c.11-.13.36-.2.76-.18,1,0,2,.38,3,.43a9.68,9.68,0,0,0,9-5.11,4.81,4.81,0,0,1,1.08-1.6.44.44,0,0,1,.3-.12c.2,0,.3.25.35.45a7.59,7.59,0,0,1-1.15,5.57c-1.54,2.1-4.74,3.24-7.2,3.34a9.18,9.18,0,0,1-5.65-1.81C385.67,178.24,385.49,177.86,385.69,177.65Z" style="fill:#263238"></path><path d="M398.66,174.12a.83.83,0,0,1,1-.5,3.55,3.55,0,0,0,.94.19,2.63,2.63,0,0,0,1-.08,2.9,2.9,0,0,0,.84-.38l.41-.29a1.62,1.62,0,0,1,.49-.25c.16-.05.21.25.2.34a1.67,1.67,0,0,1-.24.69,2.34,2.34,0,0,1-.42.52,3.88,3.88,0,0,1-4,.85.56.56,0,0,1-.29-.44A1,1,0,0,1,398.66,174.12Z" style="fill:#263238"></path><path d="M398.26,175.56l.14,0,.11.08h0l.06,0,.16.13.39.27a4.78,4.78,0,0,0,.81.42,3.62,3.62,0,0,0,.86.22,3.33,3.33,0,0,0,.63,0,3.29,3.29,0,0,1,.94,0c.19,0,.22.41.11.52a3.11,3.11,0,0,1-2.59.79,5.26,5.26,0,0,1-2.13-.92C397.11,176.68,397.64,175.48,398.26,175.56Z" style="fill:#263238"></path><path d="M372.56,183a53.94,53.94,0,0,0-3.81,5.49c-1.39,2.27-1.43,3.32-.32,5.72,2.63,5.71,8.76,11.86,11.35,13,0,0,8.49,3.16,12.65,4.41,4.89,1.48,10.57,2.88,11.64.53a4.09,4.09,0,0,0,.24-2,34.75,34.75,0,0,0-3.18-11.48,109.41,109.41,0,0,0-11.85-21.14C384.39,170.81,376,178.7,372.56,183Z" style="fill:#ffbda7"></path><path d="M403.57,212.79c-2.24.56-6.1-1-12.77-5.6s-22.22-13.79-23.14-16a6.08,6.08,0,0,0,.77,3c2.63,5.71,8.76,11.87,11.35,13,0,0,8.49,3.16,12.65,4.41C396.8,213,401.78,214.2,403.57,212.79Z" style="fill:#f0997a"></path><path d="M367.27,178.3a1,1,0,0,0-.78-.07c-1,.19-1.89.66-2.88.85a9.69,9.69,0,0,1-9.62-3.77,4.67,4.67,0,0,0-1.29-1.43.45.45,0,0,0-.31-.08c-.2,0-.27.29-.29.49a7.6,7.6,0,0,0,1.94,5.36c1.82,1.85,5.15,2.52,7.6,2.28a9.2,9.2,0,0,0,5.33-2.61C367.38,178.88,367.5,178.48,367.27,178.3Z" style="fill:#263238"></path><path d="M353.93,176.66a.82.82,0,0,0-1-.35,3.86,3.86,0,0,1-.91.32,2.64,2.64,0,0,1-1,.06,3,3,0,0,1-.88-.25l-.45-.23a1.4,1.4,0,0,0-.52-.18c-.17,0-.17.27-.15.36a1.76,1.76,0,0,0,.34.65,2.62,2.62,0,0,0,.48.46,4.19,4.19,0,0,0,1.38.62,3.79,3.79,0,0,0,2.7-.36.57.57,0,0,0,.22-.47A1.1,1.1,0,0,0,353.93,176.66Z" style="fill:#263238"></path><path d="M354.53,178l-.13,0-.1.1h0l-.06.06a.93.93,0,0,1-.14.14l-.34.33a5.53,5.53,0,0,1-.74.53,3.46,3.46,0,0,1-.82.34,3.35,3.35,0,0,1-.63.05,3.54,3.54,0,0,0-.93.14c-.18.05-.16.44,0,.53a3.08,3.08,0,0,0,2.67.4,5.27,5.27,0,0,0,2-1.21C355.83,179,355.14,177.86,354.53,178Z" style="fill:#263238"></path><path d="M357.48,131.47a40.45,40.45,0,0,1,12,11.7c.77,1.11,1.62,2.34,2.94,2.64,1.8.42,3.44-1.09,4.55-2.57a29.28,29.28,0,0,0,2.37-30.64c-3.49-7.53-12.24-8-12.78,1.65-1.77-3.89-3.28-6.28-7-7.82a8.71,8.71,0,0,0-11.32,8.41c-5.64-5-11,2-8.92,7.82a3,3,0,0,0-2.44-.26c-2.87.71-3.48,5.55-2.15,7.9a23.59,23.59,0,0,1,2.27-1A22.86,22.86,0,0,1,357.48,131.47Z" style="fill:#BA68C8"></path><path d="M377.6,113.31c-.75-1.48-2-3.43-3.84-3.43-2.46,0-2.81,2.77-2.46,4.73.89,5,3.26,9.73,3.95,14.78.35,2.54.28,5.12.56,7.66a.79.79,0,0,0,.16.48.69.69,0,0,0,.5.16,2.54,2.54,0,0,0,1.88-1,6.17,6.17,0,0,0,1-2A29.6,29.6,0,0,0,377.6,113.31Zm-.87,26a2.13,2.13,0,0,0-2.45,2.1,1,1,0,0,0,.23.57,1,1,0,0,0,.42.28,1.67,1.67,0,0,0,1.53-.27C377.23,141.44,378.19,139.59,376.73,139.32Z" style="fill:#fff;opacity:0.2"></path><path d="M349.94,114.61a2.16,2.16,0,0,0,.41,1.62,1.51,1.51,0,0,0,1.81,0,7.16,7.16,0,0,0,1.38-1.37,5.12,5.12,0,0,1,3.28-1.76,3.81,3.81,0,0,0,1.51-.2,1.63,1.63,0,0,0,.68-1.88c-.58-2.08-3.71-3.32-5.59-2.47C350.7,109.81,350,111.79,349.94,114.61Z" style="fill:#fff;opacity:0.2"></path><path d="M373.58,144.08c-2.32-.35-3.49-2.9-4.51-5a26.75,26.75,0,0,0-7.86-9.75,20.85,20.85,0,0,0-11.69-4.26c-3.75-.13-7.43.86-11.16,1.2a3,3,0,0,1-2.36-.49,2.13,2.13,0,0,1-.54-1.09,2.88,2.88,0,0,1,.2-1.66c-1.82,1.56-2.09,5.3-1,7.28a24.74,24.74,0,0,1,2.28-1,22.86,22.86,0,0,1,20.51,2.16,40.45,40.45,0,0,1,12,11.7c.77,1.11,1.62,2.34,2.93,2.64,1.8.42,3.45-1.09,4.56-2.57l.32-.46A5,5,0,0,1,373.58,144.08ZM348.66,119c.07.26.12.4.12.4S348.74,119.25,348.66,119Zm12.4-9.82c4.17,3.88,6.08,11,6.17,11.29a25.27,25.27,0,0,1-.66-6.22c-1.77-3.89-3.28-6.28-7-7.82a8.3,8.3,0,0,0-7.13.87C354.85,106.86,358.47,106.77,361.06,109.18Zm-17.2,5.22c3.08.24,4.42,3.47,4.8,4.6a16.09,16.09,0,0,1-.45-4.16c-2.9-2.55-5.71-2-7.48,0A6.43,6.43,0,0,1,343.86,114.4Z" style="opacity:0.2"></path><path d="M180.14,139.4a53.94,53.94,0,0,0-6.55,2.39s8.66,13.86,18,32.33C189.75,160.23,184.13,147.24,180.14,139.4Z" style="fill:#af6152"></path><path d="M171.37,191.93s-20-22.37-26.13-38.83a12.38,12.38,0,0,0-5.9,4.7C149,180.08,171.37,191.93,171.37,191.93Z" style="fill:#af6152"></path><path d="M173.92,201.05c-4.25-5.1-12-3.69-16.06.89a14.44,14.44,0,0,0-3.37,6.75c-.54,2.85-.41,6,2,7.94.55.44.89.21,1.2-.25A4.43,4.43,0,0,0,158,214c0-.45,0-.9,0-1.35a16.43,16.43,0,0,1,.16-2.71,11.85,11.85,0,0,1,2-5,10.3,10.3,0,0,1,13.52-2.95C174.15,202.23,174.11,201.27,173.92,201.05Z" style="fill:#af6152"></path><path d="M222.76,170c-2-2.45-5.87-3.26-8.91-2.91a12.85,12.85,0,0,0-7.76,3.84,13.45,13.45,0,0,0-3.36,7,12.2,12.2,0,0,0,0,4,7,7,0,0,0,.53,1.8,4.52,4.52,0,0,0,1.89,2.12,1,1,0,0,0,.82.16c.34-.11.3-.3.47-.54.46-.68.08-2,0-2.69-.06-.51-.15-1-.18-1.53a12.79,12.79,0,0,1,.11-2.9,10.55,10.55,0,0,1,2.44-5.22,9.67,9.67,0,0,1,4.91-3,12.91,12.91,0,0,1,5-.34,38,38,0,0,1,3.9,1C223,170.94,222.91,170.22,222.76,170Z" style="fill:#af6152"></path><path d="M196.78,181.69a9.81,9.81,0,0,0-7.19-3.25,12,12,0,0,0-6.46,1.72,12.72,12.72,0,0,0-4.54,4.56,9.66,9.66,0,0,0-1.13,2.88,10,10,0,0,0-.13,2.89,33.6,33.6,0,0,0,.79,3.44c0,.24.33.32.41,0a14.24,14.24,0,0,1,.6-1.45c.29-.72.49-1.48.75-2.21a21.1,21.1,0,0,1,1.49-3.61,11,11,0,0,1,3.68-3.87,10.46,10.46,0,0,1,5.06-1.49,13.38,13.38,0,0,1,3.4.19c1.08.21,2.07.66,3.12,1C197.08,182.64,196.9,181.84,196.78,181.69Z" style="fill:#af6152"></path><path d="M264.94,219.6c-14.89-7.18-31.26-8.94-47.74-8.22-12.89.57-25.76,2.26-38.68,1.73-14-.56-23.18-6-35.31-12.52-3.66-2-8.16-4-11.77-1.89a8.89,8.89,0,0,0-3.61,4.77c-2.63,7.1.1,14.94,2.81,22,2.91,7.6,5.92,15.35,11.12,21.61-12.72,2-10.73,17.29-6.4,25.19a61,61,0,0,0,24.11,24.17c-3.38-.85-6.89,2-7.71,5.37s.46,7,2.4,9.86c4.46,6.66,12,10.52,19.47,13.41,31.48,12.17,66.26,10.63,95.2-7.78C288.07,305.07,302,282.24,298,259.78c-2.72-15.43-13.48-28.71-26.88-36.83C269.1,221.72,267,220.61,264.94,219.6Z" style="fill:#b16668"></path><path d="M151.76,301.82c-.82,3.39.46,7,2.4,9.86,3.56,5.33,9.11,8.86,15,11.53a51.17,51.17,0,0,1-6.06-8.34c-2.07-3.57-3.33-7.42-2.27-11.5a6.83,6.83,0,0,1,6.79-4.87A100.32,100.32,0,0,1,149,278.6c-3.36-4.73-6.36-9.91-7.28-15.64A16.11,16.11,0,0,1,142,256c.79-2.19,3.49-6,9.1-3.52-6.91-9.44-12.85-20-14.72-31.49-1-6.05-.48-13.07,4.14-17.1a12.1,12.1,0,0,1,4.38-2.39l-1.7-.92c-3.66-2-8.16-4-11.77-1.89a8.89,8.89,0,0,0-3.61,4.77c-2.63,7.1.1,14.94,2.81,22,2.91,7.6,5.92,15.35,11.12,21.61-12.72,2-10.73,17.29-6.4,25.19a61,61,0,0,0,24.11,24.17C156.09,295.6,152.58,298.44,151.76,301.82Z" style="fill:#f0997a"></path><path d="M177.57,248.29a3.18,3.18,0,0,0-.61-1,25.69,25.69,0,0,1-3-4.37,21,21,0,0,1-1.82-5.09,14.24,14.24,0,0,1,4.2-13.24,17.33,17.33,0,0,1,3-2.15,25.15,25.15,0,0,0,3.64-2.13c.68-.57-.16-1.73-.88-1.73-6.2,0-12.39,5.74-13.68,11.67a18.83,18.83,0,0,0,.94,11.39,15.13,15.13,0,0,0,3.64,5.23C173.68,247.4,178.31,250.9,177.57,248.29Zm-8.87,27.06A22.11,22.11,0,0,1,166,272.1a13.85,13.85,0,0,1-2.42-7.64,14.17,14.17,0,0,1,2.07-7.33,18.08,18.08,0,0,1,2.12-2.76,14.33,14.33,0,0,0,2.3-2.58c.3-.56-.31-1.58-1.09-1.37-3.23.88-5.6,3.62-7.1,6.23a15,15,0,0,0-2,8.16,16,16,0,0,0,1.66,6.49,16.59,16.59,0,0,0,3.58,5c1.07,1,4,3,5.56,2.07a.44.44,0,0,0,.15-.12C171.44,277.53,169.08,275.73,168.7,275.35ZM192,298.64c.37,0,.83-.13,1-.44a.88.88,0,0,0,0-.15.85.85,0,0,0-.15-.51c-.51-.85-1.72-.83-2.58-1.16a15.07,15.07,0,0,1-2.85-1.47,16.49,16.49,0,0,1-4.5-4.31,14.6,14.6,0,0,1-2.56-11.83,8.89,8.89,0,0,1,1.6-3.3c.61-.81,2.18-1.81,2.12-2.85a1.25,1.25,0,0,0-1.13-1.17c-1.72-.09-3.33,1.47-4.29,2.75a12,12,0,0,0-1.94,4.13,16.81,16.81,0,0,0,3,14.67A14.81,14.81,0,0,0,192,298.64Zm1.09,26.6c-3.6-2.18-7.42-4.38-9.45-8.58a16.9,16.9,0,0,1-1.6-6.9,16.4,16.4,0,0,1,.23-3.5c.23-1.24.66-2.43.89-3.66.26-1.41-1.64-2.5-2.46-1.37-1.77,2.41-2.29,6.11-2.14,9.14a19.19,19.19,0,0,0,2.22,8,17.81,17.81,0,0,0,4.64,5.62c2.17,1.72,5,3.33,7.77,2.64C193.68,326.47,193.39,325.43,193.08,325.24Zm13.84-59.15a40.16,40.16,0,0,1-2.46-3.52,19.33,19.33,0,0,1-1.84-3.3,16,16,0,0,1-1.3-7.38c.33-4.87,3-8.73,6.69-11.75.78-.65-.52-2.08-1.31-1.85-5.68,1.68-8.89,7.83-9.23,13.47-.38,6.28,3.14,13.06,9.16,15.37C207.26,267.37,207.15,266.37,206.92,266.09Zm13,47.61c-2.9-.83-4.76-2.79-6.61-5.05A12.91,12.91,0,0,1,210.42,296c.67-2.28,2.05-4,3.36-6,.85-1.26-1.33-2.25-2.28-1.67-5,3.05-6.43,10.59-4.82,15.85a18.52,18.52,0,0,0,5.24,7.91c2,1.86,5.59,4.5,8.46,3.07C221.05,314.86,220.4,313.84,219.92,313.7Z" style="fill:#9a4a4d"></path><path d="M324.48,342.79a73.35,73.35,0,0,0,12.25-4.54,41.43,41.43,0,0,1-20.46-1.52c-3-1-5.84-2.37-8.94-2.83-4.75-.7-9.56.79-13.86,2.91s-8.25,4.89-12.55,7a69.52,69.52,0,0,1-16.32,5.29,135.78,135.78,0,0,1-40.42,2.42,112.34,112.34,0,0,0,45.7,2.26c9.59-1.5,17.34-3.86,26.52-6.62C303.56,345,312.34,346.13,324.48,342.79Z" style="fill:#af6152"></path></g></g><g id="freepik--egg-1--inject-76"><g id="freepik--egg--inject-76"><path d="M263.58,337.3a43.21,43.21,0,0,0-28.36-15.07,12.69,12.69,0,0,0-14,11.25,43.16,43.16,0,0,0,8.63,30.93c.22.3.45.59.68.89s.47.57.72.85A21.66,21.66,0,0,0,265,339c-.22-.3-.45-.59-.68-.88S263.82,337.57,263.58,337.3Z" style="fill:#f5f5f5"></path><path d="M269.05,350.86a23.36,23.36,0,0,1,0,2.51,21.9,21.9,0,0,1-1.08,5.3l0,.1a21.42,21.42,0,0,1-6.9,9.83,22.32,22.32,0,0,1-2.16,1.53,21.62,21.62,0,0,1-27.56-4c-.25-.27-.49-.56-.73-.85s-.46-.58-.67-.89c-.79-1-1.51-2.08-2.19-3.16a42.25,42.25,0,0,1-3.11-5.86c-.41-.95-.79-1.91-1.13-2.88a43.22,43.22,0,0,1-1.95-7.84c-.2-1.3-.34-2.6-.42-3.91,1.47,8.86,11.82,26,25.52,27.21S269.25,359.22,269.05,350.86Z" style="opacity:0.1"></path></g></g><g id="freepik--chicken--inject-76"><g id="freepik--chicken--inject-76"><path d="M89.61,387.24l1.24,12.4s-3.52-.3-3.28.49,3.66,1.43,3.66,1.43,2.28,9.06,3.36,9.11-1.5-8.35-1.5-8.35,9.52,6.63,10.43,6-8.4-7.19-8.4-7.19,9.33,1.81,9.51,1-11.72-3-11.72-3.14.55-12.79.55-12.79Z" style="fill:#455a64"></path><path d="M93.23,391.66a10.59,10.59,0,0,1-2.63-.47,3.81,3.81,0,0,1-.62-.28l-.37-3.67,3.85-1Z" style="opacity:0.15"></path><path d="M95.12,401.13l-.93-.66,7.43,1.35c1.92.34,2.72.38,2.89.14.09.06.13.12.12.17C104.45,402.94,95.12,401.13,95.12,401.13Z" style="opacity:0.15"></path><path d="M92.77,401.25s2.63,1.89,5.55,3.91,4.49,3.11,5.25,3a.13.13,0,0,1,0,.12c-.91.63-10.43-6-10.43-6Z" style="opacity:0.15"></path><path d="M87.57,400.13c0-.16.06-.28.27-.36-.21.21-.06.49,1.06.75a20.45,20.45,0,0,0,2.15.39l.18.65S87.81,400.92,87.57,400.13Z" style="opacity:0.15"></path><path d="M104.5,382.14l1.23,12.4s-3.52-.3-3.27.49,3.66,1.43,3.66,1.43,2.27,9.06,3.36,9.11-1.5-8.35-1.5-8.35,9.51,6.63,10.42,6S110,396,110,396s9.34,1.81,9.51,1-11.72-3-11.71-3.14.55-12.79.55-12.79Z" style="fill:#455a64"></path><path d="M107.89,391.86c-.8.08-1.6.14-2.4.17l-1-9.89,3.85-1S108,388.25,107.89,391.86Z" style="opacity:0.15"></path><path d="M110,396l-.92-.66,7.43,1.35c1.91.34,2.71.38,2.89.14.08.06.13.12.11.17C119.34,397.84,110,396,110,396Z" style="opacity:0.15"></path><path d="M107.66,396.15s2.63,1.89,5.54,3.91,4.5,3.11,5.26,3a.14.14,0,0,1-.06.12c-.91.63-10.42-6-10.42-6Z" style="opacity:0.15"></path><path d="M102.46,395c0-.16.06-.28.26-.36-.2.21-.06.49,1.07.75a20.45,20.45,0,0,0,2.15.39l.18.65S102.7,395.82,102.46,395Z" style="opacity:0.15"></path><path d="M80.92,379.71c2.28,3,6.78,8.71,10.31,9.22s8.73-4.05,8.73-4.05,2.63,3.58,6.46,3.25,7.88-7,7.88-7a40.28,40.28,0,0,0-16.13-3.87A73.13,73.13,0,0,0,80.92,379.71Z" style="fill:#f0997a"></path><path d="M136.64,348.74c2.31-7.92.14-16.74-8.89-19.75-12.41-4.12-17.53,5.09-23.12,8.91s-14.62,4.44-20.91.56c-8.24-5.08-10.52-13.37-15.2-11.4-4.13,1.74-1.27,11.4-1.27,11.4s-4.75,2.22-4.43,7.29,5.7,10.14,5.7,10.14a19.94,19.94,0,0,0,1.06,10.86,31.56,31.56,0,0,0,24.49,17.78c15.48,1.86,24.9-4.07,28.93-14.07,3.58-8.86,4.8-12.76,7.6-15.26C134.32,351.89,135.58,352.41,136.64,348.74Z" style="fill:#ffbda7"></path><path d="M130.6,355.2a6.18,6.18,0,0,1,2.24-5.07c2.53-2.05,3.8-1.39,3.8-1.39s3.34,3.72,3.1,8.2C139.74,356.94,134.42,357,130.6,355.2Z" style="fill:#BA68C8"></path><path d="M124.31,344.21a1.87,1.87,0,1,1-1.87-1.87A1.86,1.86,0,0,1,124.31,344.21Z" style="fill:#455a64"></path><path d="M107.33,363.43c-5,8.34-18.25,6-19.22,2.78s1.45-4.11,1.45-4.11-7.73-.61-10.51-4.71.72-6.53,1.93-6.53c-2.9-.73-6.52,3.38-4,7.13s9.07,5.2,9.07,5.2a5.34,5.34,0,0,0,1.45,5.44C90.05,371.29,101.85,375,107.33,363.43Z" style="fill:#f0997a"></path></g></g></svg>
